# xmcd CD database file
#
# Track frame offsets:
#	150
#	44429
#	88471
#	160896
#	182735
#	209751
#	236882
#	242508
#
# Disc length: 4206 seconds
#
# Revision: 0
# Processed by: cddbd v1.5.2PL0 Copyright (c) Steve Scherf et al.
# Submitted via: CDex 1.70beta3
#
DISCID=73106c08
DTITLE=Brian Melvin's Nightfood featuring Jaco Pastorius - Jazz in Toulouse - Disc2
DYEAR=1985
DGENRE=Jazz
TTITLE0=Mercy, Mercy, Mercy
TTITLE1=Naima
TTITLE2=So what
TTITLE3=Birdland
TTITLE4=If You Could See Me Now
TTITLE5=Bass Solo: Amerika ～ Purple Haze
TTITLE6=La Marseillaise
TTITLE7=Hard Night Blues ～ Melody: Fannie Mae ～ Star Spangel Banner
EXTD=YEAR: 1985
EXTT0=
EXTT1=
EXTT2=
EXTT3=
EXTT4=
EXTT5=
EXTT6=
EXTT7=
PLAYORDER=
